<?xml version="1.0" standalone="no"?>
<!DOCTYPE svg PUBLIC "-//W3C//DTD SVG 20010904//EN"
 "http://www.w3.org/TR/2001/REC-SVG-20010904/DTD/svg10.dtd">
<svg version="1.0" xmlns="http://www.w3.org/2000/svg"
 width="900.000000pt" height="900.000000pt" viewBox="0 0 900.000000 900.000000"
 preserveAspectRatio="xMidYMid meet">
<metadata>
Created by potrace 1.11, written by Peter Selinger 2001-2013
</metadata>
<g transform="translate(0.000000,900.000000) scale(0.100000,-0.100000)"
fill="#000000" stroke="none">
<path d="M4145 8525 c-1227 -134 -2287 -772 -2973 -1787 -730 -1082 -892
-2450 -436 -3692 73 -198 260 -575 371 -749 566 -882 1391 -1491 2403 -1771
93 -25 398 -85 520 -101 224 -29 493 -39 726 -26 260 14 393 30 623 77 1042
211 1979 842 2568 1729 354 533 569 1106 654 1741 27 205 37 619 19 843 -75
971 -495 1880 -1185 2565 -652 647 -1456 1039 -2385 1162 -174 23 -725 28
-905 9z m1641 -919 c169 -36 323 -107 517 -237 73 -48 142 -96 155 -106 l23
-19 -19 -44 c-11 -25 -61 -144 -112 -265 -51 -121 -97 -224 -101 -229 -5 -5
-53 21 -111 60 -117 78 -277 162 -358 187 -71 22 -341 64 -470 73 -55 4 -100
9 -100 11 0 4 128 309 190 453 15 36 35 83 44 104 l16 39 128 -6 c70 -3 159
-12 198 -21z m-443 -702 c349 -52 444 -76 592 -150 87 -44 249 -146 260 -164
3 -5 -15 -55 -39 -112 -45 -105 -239 -562 -556 -1313 -98 -231 -242 -571 -320
-755 -78 -184 -159 -375 -180 -425 -36 -87 -245 -580 -544 -1285 -81 -190
-186 -438 -234 -553 l-87 -207 -220 -218 c-349 -346 -551 -522 -597 -522 -25
0 -42 41 -80 190 -29 116 -113 547 -143 737 l-16 101 34 84 c19 46 196 463
392 928 197 465 374 886 395 935 38 91 392 929 872 2065 143 338 267 632 276
653 8 20 17 37 19 37 2 0 81 -12 176 -26z m-2326 -1048 c-3 -8 -175 -324 -381
-702 l-376 -687 282 -516 c155 -284 328 -600 384 -703 l102 -188 -327 0 -326
0 -26 48 c-565 1027 -740 1356 -731 1376 5 12 127 237 272 501 144 264 312
571 373 683 l110 202 325 0 c276 0 323 -2 319 -14z m4015 -123 c41 -76 213
-392 383 -701 300 -550 307 -564 294 -592 -8 -15 -180 -332 -384 -704 l-370
-676 -327 0 -326 0 310 568 c171 312 344 629 385 704 l75 138 -20 32 c-28 46
-732 1337 -739 1354 -4 12 46 14 320 14 l325 0 74 -137z"/>
</g>
</svg>
